<svg width="32" height="32" viewBox="0 0 32 32" fill="none" xmlns="http://www.w3.org/2000/svg">
<path d="M15.7617 15.6953C13.6035 15.6953 11.8066 13.7812 11.8066 11.3301C11.8066 8.94727 13.6133 7.08203 15.7617 7.08203C17.9102 7.08203 19.7266 8.97656 19.7266 11.3496C19.7266 13.7812 17.9199 15.6953 15.7617 15.6953ZM15.7715 17.4141C17.3145 17.4141 18.6914 17.7461 19.834 18.2832C18.4375 19.4746 17.5488 21.2422 17.5488 23.2051C17.5488 23.752 17.627 24.2891 17.7637 24.8066H9.7168C8.05664 24.8066 7.49023 24.2891 7.49023 23.3613C7.49023 20.8516 10.7031 17.4141 15.7715 17.4141ZM24.0625 28.2832C21.2793 28.2832 18.9844 25.9883 18.9844 23.2051C18.9844 20.4219 21.2793 18.127 24.0625 18.127C26.8457 18.127 29.1309 20.4219 29.1309 23.2051C29.1309 25.9688 26.8164 28.2832 24.0625 28.2832ZM24.0625 26.4473C24.4922 26.4473 24.7754 26.1641 24.7754 25.7344V23.918H26.582C27.0117 23.918 27.2949 23.6348 27.2949 23.2051C27.2949 22.7754 27.0117 22.4922 26.582 22.4922H24.7754V20.6855C24.7754 20.2559 24.4922 19.9727 24.0625 19.9727C23.623 19.9727 23.3398 20.2656 23.3398 20.6855V22.4922H21.5332C21.1035 22.4922 20.8203 22.7754 20.8203 23.2051C20.8203 23.6348 21.1133 23.918 21.5332 23.918H23.3398V25.7344C23.3398 26.1641 23.623 26.4473 24.0625 26.4473Z" fill="white"/>
</svg>
