<svg width="19" height="20" viewBox="0 0 19 20" fill="none" xmlns="http://www.w3.org/2000/svg">
<path d="M9.24023 18.4336C8.61328 18.4336 8.02441 18.2256 7.47363 17.8096C6.92871 17.3936 6.44824 16.8135 6.03223 16.0693C5.62207 15.3193 5.29688 14.4434 5.05664 13.4414C4.82227 12.4336 4.70508 11.3438 4.70508 10.1719C4.70508 9 4.82227 7.91016 5.05664 6.90234C5.29688 5.89453 5.62207 5.01562 6.03223 4.26562C6.44238 3.50977 6.92285 2.92383 7.47363 2.50781C8.02441 2.0918 8.61328 1.88379 9.24023 1.88379C9.86719 1.88379 10.4531 2.0918 10.998 2.50781C11.5488 2.92383 12.0322 3.50977 12.4482 4.26562C12.8643 5.01562 13.1895 5.89453 13.4238 6.90234C13.6582 7.91016 13.7754 9 13.7754 10.1719C13.7754 11.3438 13.6553 12.4336 13.415 13.4414C13.1807 14.4434 12.8555 15.3193 12.4395 16.0693C12.0234 16.8135 11.543 17.3936 10.998 17.8096C10.4531 18.2256 9.86719 18.4336 9.24023 18.4336ZM9.24023 3.08789C8.82422 3.08789 8.42285 3.27832 8.03613 3.65918C7.64941 4.04004 7.30371 4.56152 6.99902 5.22363C6.69434 5.88574 6.4541 6.6416 6.27832 7.49121C6.10254 8.34082 6.01465 9.23438 6.01465 10.1719C6.01465 11.1035 6.10254 11.9912 6.27832 12.835C6.4541 13.6787 6.69434 14.4316 6.99902 15.0938C7.30371 15.75 7.64941 16.2686 8.03613 16.6494C8.42285 17.0361 8.82422 17.2295 9.24023 17.2295C9.65625 17.2295 10.0576 17.0361 10.4443 16.6494C10.8311 16.2686 11.1768 15.75 11.4814 15.0938C11.7861 14.4316 12.0264 13.6787 12.2021 12.835C12.3779 11.9912 12.4658 11.1035 12.4658 10.1719C12.4658 9.23438 12.3779 8.34082 12.2021 7.49121C12.0264 6.6416 11.7861 5.88574 11.4814 5.22363C11.1768 4.56152 10.8311 4.04004 10.4443 3.65918C10.0576 3.27832 9.65625 3.08789 9.24023 3.08789ZM8.59863 2.00684H9.88184V18.2754H8.59863V2.00684ZM9.24023 13.0723C10.166 13.0723 11.0449 13.1484 11.877 13.3008C12.709 13.4473 13.4531 13.6582 14.1094 13.9336C14.7656 14.209 15.293 14.5312 15.6914 14.9004L14.707 15.7178C14.3379 15.4307 13.8779 15.1875 13.3271 14.9883C12.7764 14.7832 12.1553 14.6279 11.4639 14.5225C10.7725 14.417 10.0312 14.3643 9.24023 14.3643C8.44922 14.3643 7.70801 14.417 7.0166 14.5225C6.3252 14.6279 5.7041 14.7832 5.15332 14.9883C4.60254 15.1875 4.13965 15.4307 3.76465 15.7178L2.78027 14.9004C3.18457 14.5312 3.71484 14.209 4.37109 13.9336C5.02734 13.6582 5.77148 13.4473 6.60352 13.3008C7.43555 13.1484 8.31445 13.0723 9.24023 13.0723ZM17.2559 9.50391V10.7959H1.22461V9.50391H17.2559ZM9.24023 7.28027C8.31445 7.28027 7.43555 7.20703 6.60352 7.06055C5.77148 6.9082 5.02734 6.69434 4.37109 6.41895C3.71484 6.14355 3.18457 5.82129 2.78027 5.45215L3.76465 4.63477C4.13965 4.92188 4.60254 5.16797 5.15332 5.37305C5.7041 5.57227 6.3252 5.72461 7.0166 5.83008C7.70801 5.93555 8.44922 5.98828 9.24023 5.98828C10.0312 5.98828 10.7725 5.93555 11.4639 5.83008C12.1553 5.72461 12.7764 5.57227 13.3271 5.37305C13.8779 5.16797 14.3379 4.92188 14.707 4.63477L15.6914 5.45215C15.293 5.82129 14.7656 6.14355 14.1094 6.41895C13.4531 6.69434 12.709 6.9082 11.877 7.06055C11.0449 7.20703 10.166 7.28027 9.24023 7.28027ZM9.24023 19.3213C7.97461 19.3213 6.78809 19.0811 5.68066 18.6006C4.57324 18.126 3.59766 17.4697 2.75391 16.6318C1.91602 15.7939 1.25977 14.8213 0.785156 13.7139C0.310547 12.6064 0.0732422 11.4199 0.0732422 10.1543C0.0732422 8.88867 0.310547 7.70215 0.785156 6.59473C1.25977 5.4873 1.91602 4.51465 2.75391 3.67676C3.59766 2.83301 4.57324 2.17383 5.68066 1.69922C6.78809 1.22461 7.97461 0.987305 9.24023 0.987305C10.5059 0.987305 11.6924 1.22461 12.7998 1.69922C13.9072 2.17383 14.8799 2.83301 15.7178 3.67676C16.5557 4.51465 17.2119 5.4873 17.6865 6.59473C18.167 7.70215 18.4072 8.88867 18.4072 10.1543C18.4072 11.4199 18.167 12.6064 17.6865 13.7139C17.2119 14.8213 16.5557 15.7939 15.7178 16.6318C14.8799 17.4697 13.9072 18.126 12.7998 18.6006C11.6924 19.0811 10.5059 19.3213 9.24023 19.3213ZM9.24023 17.748C10.2891 17.748 11.2705 17.5518 12.1846 17.1592C13.1045 16.7666 13.9131 16.2217 14.6104 15.5244C15.3076 14.8271 15.8525 14.0215 16.2451 13.1074C16.6377 12.1875 16.834 11.2031 16.834 10.1543C16.834 9.10547 16.6377 8.12109 16.2451 7.20117C15.8525 6.28125 15.3076 5.47559 14.6104 4.78418C13.9131 4.08691 13.1045 3.54199 12.1846 3.14941C11.2705 2.75684 10.2891 2.56055 9.24023 2.56055C8.19141 2.56055 7.20703 2.75684 6.28711 3.14941C5.37305 3.54199 4.56738 4.08691 3.87012 4.78418C3.17285 5.47559 2.62793 6.28125 2.23535 7.20117C1.84277 8.12109 1.64648 9.10547 1.64648 10.1543C1.64648 11.2031 1.84277 12.1875 2.23535 13.1074C2.62793 14.0215 3.17285 14.8271 3.87012 15.5244C4.56738 16.2217 5.37305 16.7666 6.28711 17.1592C7.20703 17.5518 8.19141 17.748 9.24023 17.748Z" fill="black"/>
</svg>
