<svg width="19" height="19" viewBox="0 0 19 19" fill="none" xmlns="http://www.w3.org/2000/svg">
<path d="M0.412109 9.1543C0.412109 7.91211 0.649414 6.74316 1.12402 5.64746C1.59863 4.55176 2.25195 3.58789 3.08398 2.75586C3.92188 1.91797 4.88574 1.26172 5.97559 0.787109C7.07129 0.3125 8.24023 0.0751953 9.48242 0.0751953C10.7305 0.0751953 11.9023 0.3125 12.998 0.787109C14.0938 1.26172 15.0605 1.91797 15.8984 2.75586C16.7363 3.58789 17.3926 4.55176 17.8672 5.64746C18.3418 6.74316 18.5791 7.91211 18.5791 9.1543C18.5791 9.44727 18.4912 9.67578 18.3154 9.83984C18.1396 10.0039 17.9404 10.0859 17.7178 10.0859C17.4775 10.0859 17.2607 10.0068 17.0674 9.84863C16.874 9.68457 16.7773 9.45312 16.7773 9.1543C16.7773 8.14648 16.5898 7.20312 16.2148 6.32422C15.8398 5.43945 15.3184 4.66309 14.6504 3.99512C13.9824 3.32715 13.2061 2.80566 12.3213 2.43066C11.4424 2.05566 10.4961 1.86816 9.48242 1.86816C8.47461 1.86816 7.52832 2.05566 6.64355 2.43066C5.76465 2.80566 4.99414 3.32715 4.33203 3.99512C3.66992 4.66309 3.15137 5.43945 2.77637 6.32422C2.40137 7.20312 2.21387 8.14648 2.21387 9.1543C2.21387 10.0684 2.36621 10.9326 2.6709 11.7471C2.98145 12.5557 3.40918 13.2793 3.9541 13.918C4.49902 14.5508 5.12891 15.0664 5.84375 15.4648C6.07227 15.5996 6.22461 15.7578 6.30078 15.9395C6.37695 16.1211 6.39453 16.2998 6.35352 16.4756C6.3125 16.6514 6.22754 16.8037 6.09863 16.9326C5.96973 17.0615 5.80566 17.1377 5.60645 17.1611C5.41309 17.1846 5.20801 17.1377 4.99121 17.0205C4.11816 16.54 3.33594 15.9014 2.64453 15.1045C1.95312 14.3076 1.4082 13.4023 1.00977 12.3887C0.611328 11.3691 0.412109 10.291 0.412109 9.1543ZM4.12109 9.1543C4.12109 8.41602 4.25879 7.72168 4.53418 7.07129C4.81543 6.4209 5.20215 5.84961 5.69434 5.35742C6.19238 4.86523 6.76367 4.47852 7.4082 4.19727C8.05859 3.91602 8.75293 3.77539 9.49121 3.77539C10.2295 3.77539 10.9209 3.91602 11.5654 4.19727C12.2158 4.47852 12.79 4.86523 13.2881 5.35742C13.7861 5.84375 14.1729 6.40918 14.4482 7.05371C14.7295 7.69824 14.8701 8.38379 14.8701 9.11035C14.8701 9.35059 14.7881 9.5498 14.624 9.70801C14.46 9.86621 14.2637 9.94531 14.0352 9.94531C13.8066 9.94531 13.6104 9.86914 13.4463 9.7168C13.2881 9.55859 13.2031 9.35938 13.1914 9.11914C13.1738 8.60938 13.0654 8.13477 12.8662 7.69531C12.6729 7.25 12.4092 6.86035 12.0752 6.52637C11.7471 6.19238 11.3604 5.93164 10.915 5.74414C10.4756 5.55078 10.001 5.4541 9.49121 5.4541C8.97559 5.4541 8.49512 5.55078 8.0498 5.74414C7.60449 5.93164 7.21191 6.19531 6.87207 6.53516C6.53809 6.875 6.27441 7.26758 6.08105 7.71289C5.89355 8.1582 5.7998 8.63867 5.7998 9.1543C5.7998 9.79297 5.94922 10.3818 6.24805 10.9209C6.55273 11.46 6.95117 11.8936 7.44336 12.2217C7.66016 12.3799 7.77441 12.5645 7.78613 12.7754C7.80371 12.9863 7.74805 13.1797 7.61914 13.3555C7.49609 13.5312 7.32617 13.6455 7.10938 13.6982C6.89258 13.7451 6.6582 13.6895 6.40625 13.5312C5.99609 13.2676 5.61523 12.916 5.26367 12.4766C4.91797 12.0371 4.63965 11.5361 4.42871 10.9736C4.22363 10.4053 4.12109 9.79883 4.12109 9.1543ZM9.23633 15.7285L9.32422 8.80273C9.32422 8.62695 9.39746 8.50977 9.54395 8.45117C9.69629 8.39258 9.83398 8.42773 9.95703 8.55664L14.7295 13.4258C14.8584 13.5664 14.8877 13.7129 14.8174 13.8652C14.7471 14.0117 14.6211 14.085 14.4395 14.085L12.6289 14.1377L14.123 17.583C14.1641 17.6709 14.1729 17.7646 14.1494 17.8643C14.126 17.9697 14.0615 18.043 13.9561 18.084L13.0771 18.4268C12.9717 18.4678 12.8721 18.4648 12.7783 18.418C12.6904 18.3711 12.626 18.2979 12.585 18.1982L11.1787 14.709L9.92188 15.9834C9.79883 16.1182 9.65234 16.1562 9.48242 16.0977C9.3125 16.0449 9.23047 15.9219 9.23633 15.7285Z" fill="black"/>
</svg>
