<svg width="29" height="28" viewBox="0 0 29 28" fill="none" xmlns="http://www.w3.org/2000/svg">
<path d="M5.78125 15.3984C5.78125 15.1641 5.88281 14.9141 6.08594 14.6484L16.7383 1.34766C16.9336 1.09766 17.1445 0.945313 17.3711 0.890625C17.6055 0.835937 17.8125 0.859375 17.9922 0.960938C18.1797 1.05469 18.3086 1.21094 18.3789 1.42969C18.457 1.64844 18.4375 1.90625 18.3203 2.20312L14.8281 11.6953H21.4492C21.6992 11.6953 21.9023 11.7734 22.0586 11.9297C22.2148 12.0781 22.293 12.2656 22.293 12.4922C22.293 12.7344 22.1914 12.9844 21.9883 13.2422L11.3359 26.5547C11.1406 26.7969 10.9258 26.9453 10.6914 27C10.4648 27.0625 10.2578 27.043 10.0703 26.9414C9.89062 26.8477 9.76172 26.6914 9.68359 26.4727C9.61328 26.2539 9.63672 25.9922 9.75391 25.6875L13.2461 16.1953H6.625C6.375 16.1953 6.17188 16.1211 6.01562 15.9727C5.85938 15.8164 5.78125 15.625 5.78125 15.3984Z" fill="#676767"/>
</svg>
