<svg width="32" height="32" viewBox="0 0 32 32" fill="none" xmlns="http://www.w3.org/2000/svg">
<path d="M8.80078 25.168C6.64258 25.168 5.49023 24.0254 5.49023 21.8867V10.0215C5.49023 7.88281 6.64258 6.74023 8.80078 6.74023H20.5977C22.7656 6.74023 23.9082 7.88281 23.9082 10.0215V21.8867C23.9082 24.0254 22.7656 25.168 20.5977 25.168H8.80078ZM10.1973 9.65039C9.42578 9.65039 8.83008 10.2656 8.83008 11.125C8.83008 12.4922 10.3438 13.5859 11.0859 14.084C11.1738 14.1523 11.2812 14.2012 11.3594 14.2012C11.4375 14.2012 11.5352 14.1426 11.6133 14.084C12.375 13.6445 13.8691 12.4922 13.8691 11.125C13.8691 10.2656 13.2734 9.65039 12.4824 9.65039C11.9746 9.65039 11.5645 9.96289 11.3496 10.373C11.125 9.96289 10.7344 9.65039 10.1973 9.65039ZM9.49414 18.5566H19.0547C19.4258 18.5566 19.709 18.2637 19.709 17.8926C19.709 17.5312 19.4258 17.248 19.0547 17.248H9.49414C9.11328 17.248 8.83008 17.5312 8.83008 17.8926C8.83008 18.2637 9.11328 18.5566 9.49414 18.5566ZM9.49414 21.9062H16.6621C17.043 21.9062 17.3164 21.623 17.3164 21.2617C17.3164 20.8906 17.043 20.5977 16.6621 20.5977H9.49414C9.11328 20.5977 8.83008 20.8906 8.83008 21.2617C8.83008 21.623 9.11328 21.9062 9.49414 21.9062Z" fill="white"/>
</svg>
