<svg width="20" height="21" viewBox="0 0 20 21" fill="none" xmlns="http://www.w3.org/2000/svg">
<path d="M10.04 6.1377C9.77637 6.1377 9.54785 6.04395 9.35449 5.85645C9.16699 5.66309 9.07324 5.43457 9.07324 5.1709V1.11914C9.07324 0.855469 9.16699 0.629883 9.35449 0.442383C9.54199 0.249023 9.77051 0.152344 10.04 0.152344C10.3037 0.152344 10.5293 0.249023 10.7168 0.442383C10.9102 0.629883 11.0068 0.855469 11.0068 1.11914V5.1709C11.0068 5.43457 10.9102 5.66309 10.7168 5.85645C10.5293 6.04395 10.3037 6.1377 10.04 6.1377ZM12.8438 7.30664C12.6621 7.11914 12.5713 6.89063 12.5713 6.62109C12.5713 6.35156 12.6621 6.12305 12.8438 5.93555L15.7178 3.07031C15.9053 2.88867 16.1338 2.79785 16.4033 2.79785C16.6729 2.79785 16.9014 2.88867 17.0889 3.07031C17.2705 3.25781 17.3613 3.48633 17.3613 3.75586C17.3613 4.02539 17.2705 4.25391 17.0889 4.44141L14.2148 7.30664C14.0332 7.49414 13.8076 7.59082 13.5381 7.59668C13.2686 7.59668 13.0371 7.5 12.8438 7.30664ZM14.0127 10.1191C14.0127 9.85547 14.1094 9.62988 14.3027 9.44238C14.4961 9.24902 14.7246 9.15234 14.9883 9.15234H19.04C19.3037 9.15234 19.5293 9.24902 19.7168 9.44238C19.9102 9.62988 20.0068 9.85547 20.0068 10.1191C20.0068 10.3828 19.9102 10.6113 19.7168 10.8047C19.5293 10.9922 19.3037 11.0859 19.04 11.0859H14.9883C14.7246 11.0859 14.4961 10.9922 14.3027 10.8047C14.1094 10.6113 14.0127 10.3828 14.0127 10.1191ZM12.8438 12.9316C13.0371 12.7441 13.2686 12.6504 13.5381 12.6504C13.8076 12.6504 14.0332 12.7441 14.2148 12.9316L17.0889 15.7969C17.2705 15.9844 17.3613 16.2129 17.3613 16.4824C17.3613 16.752 17.2705 16.9805 17.0889 17.168C16.9014 17.3496 16.6729 17.4404 16.4033 17.4404C16.1338 17.4404 15.9053 17.3496 15.7178 17.168L12.8438 14.3027C12.6621 14.1211 12.5713 13.8955 12.5713 13.626C12.5713 13.3506 12.6621 13.1191 12.8438 12.9316ZM10.04 14.1006C10.3037 14.1006 10.5293 14.1973 10.7168 14.3906C10.9102 14.5781 11.0068 14.8037 11.0068 15.0674V19.1191C11.0068 19.3828 10.9102 19.6084 10.7168 19.7959C10.5293 19.9893 10.3037 20.0859 10.04 20.0859C9.77051 20.0859 9.54199 19.9893 9.35449 19.7959C9.16699 19.6084 9.07324 19.3828 9.07324 19.1191V15.0674C9.07324 14.8037 9.16699 14.5781 9.35449 14.3906C9.54785 14.1973 9.77637 14.1006 10.04 14.1006ZM7.22754 12.9316C7.4209 13.1191 7.51465 13.3506 7.50879 13.626C7.50879 13.8955 7.41504 14.1211 7.22754 14.3027L4.3623 17.168C4.1748 17.3496 3.94629 17.4404 3.67676 17.4404C3.40723 17.4404 3.17871 17.3496 2.99121 17.168C2.80371 16.9805 2.70996 16.752 2.70996 16.4824C2.70996 16.2129 2.80371 15.9844 2.99121 15.7969L5.85645 12.9316C6.04395 12.7441 6.27246 12.6504 6.54199 12.6504C6.81152 12.6504 7.04004 12.7441 7.22754 12.9316ZM6.06738 10.1191C6.06738 10.3828 5.9707 10.6113 5.77734 10.8047C5.58398 10.9922 5.35547 11.0859 5.0918 11.0859H1.04004C0.776367 11.0859 0.547852 10.9922 0.354492 10.8047C0.166992 10.6113 0.0732422 10.3828 0.0732422 10.1191C0.0732422 9.85547 0.166992 9.62988 0.354492 9.44238C0.547852 9.24902 0.776367 9.15234 1.04004 9.15234H5.0918C5.35547 9.15234 5.58398 9.24902 5.77734 9.44238C5.9707 9.62988 6.06738 9.85547 6.06738 10.1191ZM7.22754 7.30664C7.04004 7.5 6.81152 7.59668 6.54199 7.59668C6.27246 7.59082 6.04395 7.49414 5.85645 7.30664L2.99121 4.44141C2.80371 4.25391 2.70996 4.02539 2.70996 3.75586C2.70996 3.48633 2.80371 3.25781 2.99121 3.07031C3.17871 2.88867 3.40723 2.79785 3.67676 2.79785C3.94629 2.79785 4.1748 2.88867 4.3623 3.07031L7.22754 5.93555C7.41504 6.12305 7.50879 6.35156 7.50879 6.62109C7.50879 6.89063 7.41504 7.11914 7.22754 7.30664Z" fill="white" fill-opacity="0.4"/>
</svg>
