<svg width="32" height="33" viewBox="0 0 32 33" fill="none" xmlns="http://www.w3.org/2000/svg">
<path d="M8.55859 13.4512C8.07031 14.0762 7.45508 13.8711 7.23047 13.0996L6.03906 9.08594C5.85352 8.46094 6.22461 7.99219 6.86914 8.02148L11.0488 8.17773C11.8496 8.20703 12.1914 8.75391 11.7129 9.36914L10.8828 10.4531C12.875 11.8008 15.0625 14.4277 15.502 16.0098H15.541C15.9707 14.4375 18.1777 11.791 20.1699 10.4434L19.3105 9.26172C18.8516 8.62695 19.2129 8.08984 20.0137 8.08984L24.2031 8.06055C24.8477 8.05078 25.1992 8.53906 24.9941 9.1543L23.6855 13.1289C23.4316 13.8906 22.8066 14.0762 22.3477 13.4316L21.4395 12.1816L21.332 12.25C19.2129 13.6074 16.5859 16.8008 16.5762 19.0762V24.4473C16.5762 25.2285 16.2051 25.6484 15.5215 25.6484C14.8379 25.6484 14.4668 25.2285 14.4668 24.4473V19.0762C14.4668 16.8008 11.8301 13.6074 9.71094 12.25L9.56445 12.1523L8.55859 13.4512Z" fill="white"/>
</svg>
