<svg width="19" height="20" viewBox="0 0 19 20" fill="none" xmlns="http://www.w3.org/2000/svg">
<path d="M9.74023 19.3213C8.47461 19.3213 7.28809 19.084 6.18066 18.6094C5.07324 18.1348 4.09766 17.4756 3.25391 16.6318C2.41602 15.7939 1.75977 14.8213 1.28516 13.7139C0.810547 12.6064 0.573242 11.4199 0.573242 10.1543C0.573242 9.28125 0.69043 8.44629 0.924805 7.64941C1.15918 6.84668 1.48438 6.10547 1.90039 5.42578C2.31641 4.74609 2.79395 4.15137 3.33301 3.6416C3.53809 3.44238 3.74902 3.32812 3.96582 3.29883C4.18848 3.26953 4.39062 3.30176 4.57227 3.39551C4.75391 3.4834 4.89453 3.61523 4.99414 3.79102C5.09961 3.96094 5.1377 4.1543 5.1084 4.37109C5.08496 4.58789 4.96777 4.80469 4.75684 5.02148C4.08887 5.67188 3.55859 6.43652 3.16602 7.31543C2.7793 8.19434 2.58594 9.14062 2.58594 10.1543C2.58594 11.1445 2.77051 12.0732 3.13965 12.9404C3.50879 13.8018 4.02148 14.5605 4.67773 15.2168C5.33398 15.873 6.09277 16.3857 6.9541 16.7549C7.82129 17.124 8.75 17.3086 9.74023 17.3086C10.7305 17.3086 11.6562 17.124 12.5176 16.7549C13.3848 16.3857 14.1436 15.873 14.7939 15.2168C15.4502 14.5605 15.9629 13.8018 16.332 12.9404C16.707 12.0732 16.8945 11.1445 16.8945 10.1543C16.8945 9.14648 16.6982 8.20312 16.3057 7.32422C15.9189 6.44531 15.3916 5.68066 14.7236 5.03027C14.5127 4.81934 14.3955 4.60547 14.3721 4.38867C14.3486 4.16602 14.3867 3.9668 14.4863 3.79102C14.5859 3.60937 14.7266 3.47168 14.9082 3.37793C15.0957 3.28418 15.2979 3.25488 15.5146 3.29004C15.7373 3.31934 15.9482 3.43652 16.1475 3.6416C16.6865 4.15723 17.1641 4.75195 17.5801 5.42578C17.9961 6.09375 18.3213 6.82617 18.5557 7.62305C18.79 8.41406 18.9072 9.25781 18.9072 10.1543C18.9072 11.4199 18.667 12.6064 18.1865 13.7139C17.7119 14.8213 17.0557 15.7939 16.2178 16.6318C15.3799 17.4756 14.4072 18.1348 13.2998 18.6094C12.1924 19.084 11.0059 19.3213 9.74023 19.3213ZM9.74023 10.2598C9.42969 10.2598 9.17773 10.1602 8.98438 9.96094C8.79688 9.76172 8.70312 9.49512 8.70312 9.16113V1.5498C8.70312 1.22168 8.79688 0.958008 8.98438 0.758789C9.17773 0.553711 9.42969 0.451172 9.74023 0.451172C10.0508 0.451172 10.2998 0.553711 10.4873 0.758789C10.6807 0.958008 10.7773 1.22168 10.7773 1.5498V9.16113C10.7773 9.49512 10.6807 9.76172 10.4873 9.96094C10.2998 10.1602 10.0508 10.2598 9.74023 10.2598Z" fill="white"/>
</svg>
