<svg width="22" height="24" viewBox="0 0 22 24" fill="none" xmlns="http://www.w3.org/2000/svg">
<path d="M11.4902 14.5859C11.2493 14.5859 11.002 14.5371 10.748 14.4395C10.5007 14.3353 10.2174 14.1921 9.89844 14.0098L2.4668 9.71289C1.99154 9.43945 1.6237 9.14648 1.36328 8.83398C1.10938 8.52148 0.982422 8.14388 0.982422 7.70117C0.982422 7.25846 1.10938 6.88086 1.36328 6.56836C1.6237 6.25586 1.99154 5.95964 2.4668 5.67969L9.89844 1.39258C10.2174 1.20378 10.5007 1.06055 10.748 0.962891C11.002 0.858724 11.2493 0.806641 11.4902 0.806641C11.7376 0.806641 11.985 0.858724 12.2324 0.962891C12.4798 1.06055 12.7663 1.20378 13.0918 1.39258L20.5234 5.67969C20.9987 5.95964 21.3633 6.25586 21.6172 6.56836C21.8776 6.88086 22.0078 7.25846 22.0078 7.70117C22.0078 8.14388 21.8776 8.52148 21.6172 8.83398C21.3633 9.14648 20.9987 9.43945 20.5234 9.71289L13.0918 14.0098C12.7663 14.1921 12.4798 14.3353 12.2324 14.4395C11.985 14.5371 11.7376 14.5859 11.4902 14.5859ZM11.4902 23.1797C11.2493 23.1797 11.002 23.1309 10.748 23.0332C10.5007 22.9355 10.2174 22.7923 9.89844 22.6035L2.4668 18.3066C1.99154 18.0332 1.6237 17.7402 1.36328 17.4277C1.10938 17.1152 0.982422 16.7376 0.982422 16.2949C0.982422 15.8522 1.10938 15.4746 1.36328 15.1621C1.6237 14.8496 1.99154 14.5534 2.4668 14.2734L4.85938 12.8965L9.12695 15.3574C9.58919 15.6178 10.0059 15.8132 10.377 15.9434C10.748 16.0671 11.1191 16.1289 11.4902 16.1289C11.8678 16.1289 12.2422 16.0671 12.6133 15.9434C12.9844 15.8132 13.401 15.6178 13.8633 15.3574L18.1309 12.8965L20.5234 14.2734C20.9987 14.5534 21.3633 14.8496 21.6172 15.1621C21.8776 15.4746 22.0078 15.8522 22.0078 16.2949C22.0078 16.7376 21.8776 17.1152 21.6172 17.4277C21.3633 17.7402 20.9987 18.0332 20.5234 18.3066L13.0918 22.6035C12.7663 22.7923 12.4798 22.9355 12.2324 23.0332C11.985 23.1309 11.7376 23.1797 11.4902 23.1797Z" fill="white" fill-opacity="0.44"/>
</svg>
