<svg width="32" height="32" viewBox="0 0 32 32" fill="none" xmlns="http://www.w3.org/2000/svg">
<path d="M10.7715 26.6035C8.62305 26.6035 7.49023 25.4512 7.49023 23.293V8.61523C7.49023 6.45703 8.63281 5.31445 10.7715 5.31445H15.2148V12.8535C15.2148 14.0547 15.8008 14.6504 17.002 14.6504H24.4824V23.293C24.4824 25.4512 23.3398 26.6035 21.2012 26.6035H10.7715ZM17.2852 13.1562C16.9043 13.1562 16.709 12.9609 16.709 12.5801V5.40234C17.1777 5.45117 17.6367 5.8125 18.1543 6.33008L23.4473 11.6914C23.9844 12.2383 24.3359 12.6777 24.3848 13.1562H17.2852ZM12.2168 19.0059H19.7852C20.2051 19.0059 20.5273 18.6934 20.5273 18.2734C20.5273 17.873 20.2051 17.5605 19.7852 17.5605H12.2168C11.7773 17.5605 11.4648 17.873 11.4648 18.2734C11.4648 18.6934 11.7773 19.0059 12.2168 19.0059ZM12.2168 22.6484H19.7852C20.2051 22.6484 20.5273 22.3359 20.5273 21.9258C20.5273 21.5156 20.2051 21.1934 19.7852 21.1934H12.2168C11.7773 21.1934 11.4648 21.5156 11.4648 21.9258C11.4648 22.3359 11.7773 22.6484 12.2168 22.6484Z" fill="white"/>
</svg>
