<svg width="44" height="44" viewBox="0 0 44 44" fill="none" xmlns="http://www.w3.org/2000/svg">
<rect width="44" height="44" rx="10.1538" fill="white" fill-opacity="0.06"/>
<path d="M21.6074 31.9177C16.3809 31.9177 12.127 27.6638 12.127 22.4373C12.127 17.2109 16.3809 12.957 21.5983 12.957C26.3613 12.957 30.3697 16.511 30.9878 21.1648C30.2425 20.9012 29.8062 20.8194 29.3154 20.8285C29.2699 20.6467 29.2245 20.4649 29.179 20.2922C28.161 21.0012 27.0521 21.5375 25.8795 21.892C25.6341 22.3737 25.1342 22.7009 24.5615 22.7009C24.1889 22.7009 23.8434 22.5646 23.5889 22.3374C23.2435 22.3646 22.9072 22.3828 22.5618 22.3828C22.3709 22.3828 22.1892 22.3737 22.0074 22.3737C22.0255 23.2918 22.1437 24.2371 22.3619 25.1824C22.9345 25.3915 23.3435 25.9459 23.3435 26.5913C23.3435 26.9094 23.2526 27.2003 23.089 27.4366C23.2981 27.9638 23.5526 28.4819 23.8344 29C23.9162 29.3363 23.9889 29.6272 24.0798 29.7363C24.2525 30.2725 24.5615 30.7816 25.0433 31.2451C24.916 31.3087 24.7979 31.3542 24.6797 31.3905C23.698 31.736 22.6618 31.9177 21.6074 31.9177ZM22.6073 14.6567C22.5164 14.6385 22.4164 14.6294 22.3164 14.6203C20.7894 16.0383 19.6077 17.7471 18.8442 19.6469C19.0805 19.8741 19.2351 20.1831 19.2805 20.5285C19.7441 20.6831 20.2258 20.8012 20.7076 20.8921C20.8803 18.6925 21.5256 16.5655 22.6073 14.6567ZM15.1538 17.9562C15.6992 18.5107 16.29 18.9924 16.9354 19.4105C17.1263 19.2924 17.3535 19.2106 17.5989 19.1924C18.2534 17.5381 19.1896 16.011 20.3894 14.6749C18.2352 15.0112 16.3628 16.2383 15.1538 17.9562ZM24.5706 17.9926C24.5797 18.5925 24.6342 19.1924 24.7524 19.7741C25.216 19.8287 25.6159 20.1104 25.8341 20.5013C26.8521 20.1559 27.8065 19.6469 28.67 18.9924C27.8701 17.3745 26.543 16.0747 24.916 15.3293C24.6797 16.2019 24.5615 17.0927 24.5706 17.9926ZM23.2345 18.0017C23.2345 17.3199 23.289 16.6473 23.3981 15.9929C22.6255 17.5563 22.171 19.2651 22.0346 21.0376C22.2073 21.0466 22.38 21.0466 22.5618 21.0466C22.7436 21.0466 22.9254 21.0376 23.1072 21.0285C23.1436 20.7285 23.2799 20.4467 23.4799 20.2286C23.3253 19.5014 23.2435 18.7561 23.2345 18.0017ZM13.745 22.4373C13.745 22.5282 13.7541 22.6101 13.7541 22.6919C14.6176 23.4281 15.5447 24.0371 16.5264 24.5279C16.5445 23.6553 16.6264 22.7918 16.79 21.9556C16.4264 21.6647 16.1901 21.2284 16.1901 20.7285C16.1901 20.6649 16.1901 20.6013 16.1991 20.5376C15.5811 20.1377 14.9993 19.6832 14.463 19.1742C14.0086 20.165 13.745 21.2739 13.745 22.4373ZM17.8625 25.1097C18.7351 25.4369 19.635 25.6823 20.553 25.8277C20.6621 25.646 20.8075 25.4914 20.9712 25.3733C20.7803 24.3371 20.6712 23.2827 20.6621 22.2283C20.0531 22.1374 19.4532 21.992 18.8624 21.8011C18.6624 22.0192 18.3897 22.1738 18.0898 22.2465C17.9171 23.1827 17.8353 24.1371 17.8625 25.1097ZM32.7512 27.9911C32.7512 29.7181 31.7332 30.4089 29.1245 31.8541C28.9063 31.9814 28.6064 31.9995 28.3519 31.8541C25.7341 30.4271 24.7251 29.7181 24.7251 27.9911V24.6734C24.7251 24.0553 24.9251 23.7099 25.525 23.4554C26.0068 23.2554 27.6883 22.6828 28.1519 22.5282C28.5337 22.3919 28.9518 22.401 29.379 22.5464C29.7789 22.7009 31.4696 23.2554 31.9513 23.4554C32.5512 23.719 32.7512 24.0553 32.7512 24.6734V27.9911ZM28.7427 30.518V23.7917C28.6427 23.7826 28.5246 23.8008 28.3791 23.8462C27.8338 24.0553 27.0248 24.3552 26.3613 24.6007C26.1249 24.6825 26.0431 24.8097 26.0431 25.037V27.8456C26.0431 29.0091 26.5521 29.3 28.5155 30.4543C28.5973 30.5089 28.67 30.527 28.7427 30.518ZM14.054 24.6188C14.5539 26.3186 15.6083 27.7911 17.0081 28.8091C16.7627 27.8911 16.6173 26.9639 16.5627 26.0277C15.6901 25.6369 14.8539 25.1733 14.054 24.6188ZM21.6074 30.2907C21.9801 30.2907 22.3982 30.2634 22.7345 30.2089C22.3528 29.5545 22.0165 28.8455 21.7347 28.091C21.1529 28.0456 20.6621 27.682 20.4531 27.1639C19.6077 27.0367 18.7624 26.8276 17.9443 26.564C18.0625 27.6547 18.3261 28.7182 18.726 29.7453C19.6168 30.0998 20.5894 30.2907 21.6074 30.2907Z" fill="white"/>
</svg>
