<svg width="34" height="34" viewBox="0 0 34 34" fill="none" xmlns="http://www.w3.org/2000/svg">
<rect width="34" height="34" rx="17" fill="#5B7CFF"/>
<path d="M16.9502 24.3511C12.7388 24.3511 9.31104 20.9233 9.31104 16.7119C9.31104 12.4932 12.7388 9.07275 16.9502 9.07275C21.1689 9.07275 24.5894 12.4932 24.5894 16.7119C24.5894 20.9233 21.1689 24.3511 16.9502 24.3511ZM16.9209 14.2803C17.5215 14.2803 17.9976 13.7896 17.9976 13.189C17.9976 12.5737 17.5215 12.0977 16.9209 12.0977C16.3203 12.0977 15.8296 12.5737 15.8296 13.189C15.8296 13.7896 16.3203 14.2803 16.9209 14.2803ZM15.5879 20.9087H18.686C19.0522 20.9087 19.3452 20.6523 19.3452 20.2715C19.3452 19.9199 19.0522 19.6343 18.686 19.6343H17.9097V16.2285C17.9097 15.7305 17.6606 15.4009 17.1919 15.4009H15.7271C15.3608 15.4009 15.0679 15.6865 15.0679 16.0381C15.0679 16.4116 15.3608 16.6753 15.7271 16.6753H16.4668V19.6343H15.5879C15.2144 19.6343 14.9287 19.9199 14.9287 20.2715C14.9287 20.6523 15.2144 20.9087 15.5879 20.9087Z" fill="white"/>
</svg>
