<svg width="44" height="54" viewBox="0 0 44 54" fill="none" xmlns="http://www.w3.org/2000/svg">
<g filter="url(#filter0_d_245_8275)">
<path d="M13.7812 28.3984C13.7812 28.1641 13.8828 27.9141 14.0859 27.6484L24.7383 14.3477C24.9336 14.0977 25.1445 13.9453 25.3711 13.8906C25.6055 13.8359 25.8125 13.8594 25.9922 13.9609C26.1797 14.0547 26.3086 14.2109 26.3789 14.4297C26.457 14.6484 26.4375 14.9062 26.3203 15.2031L22.8281 24.6953H29.4492C29.6992 24.6953 29.9023 24.7734 30.0586 24.9297C30.2148 25.0781 30.293 25.2656 30.293 25.4922C30.293 25.7344 30.1914 25.9844 29.9883 26.2422L19.3359 39.5547C19.1406 39.7969 18.9258 39.9453 18.6914 40C18.4648 40.0625 18.2578 40.043 18.0703 39.9414C17.8906 39.8477 17.7617 39.6914 17.6836 39.4727C17.6133 39.2539 17.6367 38.9922 17.7539 38.6875L21.2461 29.1953H14.625C14.375 29.1953 14.1719 29.1211 14.0156 28.9727C13.8594 28.8164 13.7812 28.625 13.7812 28.3984Z" fill="#FF9E2C"/>
</g>
<defs>
<filter id="filter0_d_245_8275" x="0.68125" y="0.708593" width="42.7117" height="52.4852" filterUnits="userSpaceOnUse" color-interpolation-filters="sRGB">
<feFlood flood-opacity="0" result="BackgroundImageFix"/>
<feColorMatrix in="SourceAlpha" type="matrix" values="0 0 0 0 0 0 0 0 0 0 0 0 0 0 0 0 0 0 127 0" result="hardAlpha"/>
<feOffset/>
<feGaussianBlur stdDeviation="6.55"/>
<feComposite in2="hardAlpha" operator="out"/>
<feColorMatrix type="matrix" values="0 0 0 0 1 0 0 0 0 0.619608 0 0 0 0 0.172549 0 0 0 0.98 0"/>
<feBlend mode="normal" in2="BackgroundImageFix" result="effect1_dropShadow_245_8275"/>
<feBlend mode="normal" in="SourceGraphic" in2="effect1_dropShadow_245_8275" result="shape"/>
</filter>
</defs>
</svg>
