<svg width="32" height="33" viewBox="0 0 32 33" fill="none" xmlns="http://www.w3.org/2000/svg">
<path d="M8.11133 15.3262C7.0957 15.3262 6.16797 15.5508 5.36719 15.9609L7.81836 10.3262C8.49219 8.77344 9.81055 7.91406 11.6074 7.91406H19.4785C21.2754 7.91406 22.5938 8.77344 23.2676 10.3262L25.7188 15.9707C24.918 15.5508 23.9902 15.3262 22.9648 15.3262H8.11133ZM8.11133 25.0039C5.66016 25.0039 3.99023 23.3438 3.99023 20.9121C3.99023 18.4805 5.66016 16.8203 8.11133 16.8203H22.9648C25.416 16.8203 27.0859 18.4805 27.0859 20.9121C27.0859 23.3438 25.416 25.0039 22.9648 25.0039H8.11133ZM21.6172 20.9316C21.6172 21.6445 22.2031 22.2207 22.916 22.2109C23.5996 22.2012 24.1953 21.6445 24.1953 20.9316C24.1953 20.2383 23.5996 19.6426 22.916 19.6426C22.2129 19.6426 21.6172 20.2383 21.6172 20.9316Z" fill="white"/>
</svg>
