<svg width="32" height="32" viewBox="0 0 32 32" fill="none" xmlns="http://www.w3.org/2000/svg">
<g clip-path="url(#clip0_152_10777)">
<path d="M16 4C22.6274 4 28 9.37258 28 16C28 22.6274 22.6274 28 16 28C9.37258 28 4 22.6274 4 16C4 9.37258 9.37258 4 16 4ZM20.9062 11.2236C20.4549 11.2316 19.7619 11.4734 16.4297 12.8594C15.2624 13.3449 12.9294 14.3491 9.43164 15.873C8.86379 16.0989 8.56626 16.3201 8.53906 16.5361C8.48706 16.951 9.08449 17.08 9.83594 17.3242C10.4486 17.5234 11.2727 17.7563 11.7012 17.7656C12.0898 17.774 12.524 17.614 13.0029 17.2852C16.2713 15.0789 17.9585 13.9635 18.0645 13.9395C18.1391 13.9225 18.2424 13.9017 18.3125 13.9639C18.3826 14.0262 18.3756 14.144 18.3682 14.1758C18.3088 14.429 15.2431 17.2183 15.0625 17.4053C14.3873 18.1065 13.6191 18.5357 14.8037 19.3164C15.8288 19.9919 16.4255 20.423 17.4814 21.1152C18.1564 21.5577 18.686 22.0827 19.3828 22.0186C19.7034 21.9889 20.035 21.6871 20.2031 20.7881C20.6007 18.6628 21.3819 14.0586 21.5625 12.1611C21.5783 11.9949 21.558 11.7819 21.542 11.6885C21.526 11.5951 21.4924 11.4618 21.3711 11.3633C21.2273 11.2468 21.0054 11.2219 20.9062 11.2236Z" fill="white"/>
</g>
<defs>
<clipPath id="clip0_152_10777">
<rect width="24" height="24" fill="white" transform="translate(4 4)"/>
</clipPath>
</defs>
</svg>
