<svg width="32" height="32" viewBox="0 0 32 32" fill="none" xmlns="http://www.w3.org/2000/svg">
<path d="M3.99219 7.92212C3.99219 7.34595 4.4707 6.86743 5.03711 6.86743H8.31836C9.4707 6.86743 9.86133 7.32642 9.98828 8.23462L10.125 9.18188H25.5938C26.3652 9.18188 26.7852 9.62134 26.7852 10.2561C26.7852 10.3733 26.7656 10.5393 26.7461 10.676L26.043 15.3928C25.8184 16.9358 24.998 17.8635 23.4551 17.8635H11.3652L11.5215 18.8596C11.5801 19.2991 11.8438 19.592 12.2539 19.592H23.3477C23.8555 19.592 24.3145 19.9827 24.3145 20.5491C24.3145 21.1252 23.8555 21.5159 23.3477 21.5159H12C10.457 21.5159 9.63672 20.5881 9.41211 19.0647L7.9375 8.96704H5.03711C4.4707 8.96704 3.99219 8.48853 3.99219 7.92212ZM11.0332 24.7288C11.0332 23.7424 11.8242 22.9514 12.8105 22.9514C13.7969 22.9514 14.5879 23.7424 14.5879 24.7288C14.5879 25.7151 13.7969 26.5061 12.8105 26.5061C11.8242 26.5061 11.0332 25.7151 11.0332 24.7288ZM19.9785 24.7288C19.9785 23.7424 20.7793 22.9514 21.7656 22.9514C22.752 22.9514 23.543 23.7424 23.543 24.7288C23.543 25.7151 22.752 26.5061 21.7656 26.5061C20.7793 26.5061 19.9785 25.7151 19.9785 24.7288Z" fill="white"/>
</svg>
