<svg width="40" height="40" viewBox="0 0 40 40" fill="none" xmlns="http://www.w3.org/2000/svg">
<g clip-path="url(#clip0_150_5483)">
<path d="M40 19.9999C40 31.0456 31.0457 39.9999 20 39.9999C8.9543 39.9999 0 31.0456 0 19.9999C0 8.95424 8.9543 -6.78301e-05 20 -6.78301e-05C31.0457 -6.78301e-05 40 8.95424 40 19.9999Z" fill="#FBDCCB"/>
<path d="M40.0346 19.8584C40.0346 30.9041 31.0803 39.8584 20.0346 39.8584C8.98889 39.8584 0.0345866 30.9041 0.0345866 19.8584C0.0345866 8.8127 8.98889 -0.141602 20.0346 -0.141602C31.0803 -0.141602 40.0346 8.8127 40.0346 19.8584Z" fill="#FBDCCB"/>
<path d="M40.0346 19.8584C40.0346 30.9041 31.0803 39.8584 20.0346 39.8584C8.98889 39.8584 0.0345866 30.9041 0.0345866 19.8584C0.0345866 8.8127 8.98889 -0.141602 20.0346 -0.141602C31.0803 -0.141602 40.0346 8.8127 40.0346 19.8584Z" fill="#FBDCCB"/>
<path d="M20.6672 16.2253C20.8921 16.8572 20.8568 17.5525 20.5691 18.1583C20.2813 18.7642 19.7647 19.2309 19.1328 19.4558C18.5009 19.6807 17.8056 19.6454 17.1997 19.3577C16.5939 19.0699 16.1272 18.5533 15.9023 17.9214C15.6774 17.2895 15.7127 16.5942 16.0004 15.9883C16.2882 15.3825 16.8048 14.9158 17.4367 14.6909C18.0686 14.466 18.7639 14.5013 19.3698 14.789C19.9756 15.0768 20.4423 15.5934 20.6672 16.2253Z" fill="#FF7A7A"/>
<path d="M11.8044 17.4552C12.0293 18.0871 11.994 18.7824 11.7062 19.3883C11.4185 19.9941 10.9018 20.4608 10.27 20.6857C9.63808 20.9106 8.94274 20.8753 8.33691 20.5876C7.73107 20.2998 7.26435 19.7832 7.03944 19.1513C6.81452 18.5194 6.84983 17.8241 7.13759 17.2183C7.42535 16.6124 7.94199 16.1457 8.57386 15.9208C9.20573 15.6959 9.90107 15.7312 10.5069 16.0189C11.1128 16.3067 11.5795 16.8233 11.8044 17.4552Z" fill="#FF7A7A"/>
<path fill-rule="evenodd" clip-rule="evenodd" d="M10.944 24.3473C10.5606 24.931 10.723 25.715 11.3067 26.0983C13.5261 27.5559 16.489 27.0941 18.1596 25.0303L18.232 24.9408C18.6713 24.398 18.5874 23.6018 18.0446 23.1624C17.5018 22.7231 16.7056 22.8069 16.2663 23.3498L16.1939 23.4392C15.3409 24.493 13.8281 24.7288 12.695 23.9845C12.1113 23.6012 11.3273 23.7636 10.944 24.3473Z" fill="#FF7A7A"/>
</g>
<defs>
<clipPath id="clip0_150_5483">
<rect width="40" height="40" fill="white"/>
</clipPath>
</defs>
</svg>
