<svg width="32" height="32" viewBox="0 0 32 32" fill="none" xmlns="http://www.w3.org/2000/svg">
<path d="M32 0V32H0V0H32Z" fill="white" fill-opacity="0.01"/>
<path d="M25.2548 7.3654C23.5062 6.54722 21.6563 5.96587 19.7539 5.63672C19.517 6.06511 19.2401 6.6413 19.0492 7.0997C16.9982 6.79129 14.966 6.79129 12.9526 7.0997C12.7618 6.64141 12.4787 6.06511 12.2396 5.63672C10.3354 5.96602 8.48389 6.54885 6.73443 7.36967C3.25311 12.6305 2.30935 17.7605 2.78118 22.8179C5.09022 24.5422 7.32791 25.5897 9.52789 26.2751C10.0746 25.5233 10.558 24.7272 10.9728 23.8953C10.183 23.5946 9.42147 23.224 8.69746 22.7879C8.88799 22.6467 9.07403 22.4995 9.25532 22.3466C13.6426 24.3987 18.4096 24.3987 22.7446 22.3466C22.9266 22.4985 23.1126 22.6456 23.3023 22.7879C22.5772 23.2251 21.8142 23.5965 21.0228 23.8975C21.44 24.7328 21.9225 25.5296 22.4677 26.2772C24.6698 25.5919 26.9096 24.5444 29.2186 22.8179C29.7723 16.9552 28.2729 11.8722 25.2548 7.3654ZM11.5706 19.7077C10.2535 19.7077 9.17345 18.4781 9.17345 16.9809C9.17345 15.4836 10.2305 14.252 11.5706 14.252C12.9108 14.252 13.9908 15.4815 13.9678 16.9809C13.9698 18.4781 12.9108 19.7077 11.5706 19.7077ZM20.4292 19.7077C19.1121 19.7077 18.0321 18.4781 18.0321 16.9809C18.0321 15.4836 19.0891 14.252 20.4292 14.252C21.7694 14.252 22.8494 15.4815 22.8263 16.9809C22.8263 18.4781 21.7694 19.7077 20.4292 19.7077Z" fill="#5865F2"/>
</svg>
