<svg width="87" height="86" viewBox="0 0 87 86" fill="none" xmlns="http://www.w3.org/2000/svg">
<g filter="url(#filter0_d_175_9561)">
<rect x="16.5" y="16" width="54" height="54" rx="27" fill="#00AB48" shape-rendering="crispEdges"/>
<path d="M40.9736 52.9873C40.2861 52.9873 39.7705 52.7402 39.3086 52.1924L33.7656 45.4785C33.3789 45.0381 33.2393 44.6406 33.2393 44.1895C33.2393 43.1797 33.9912 42.4385 35.0332 42.4385C35.6348 42.4385 36.0645 42.6533 36.4619 43.126L40.9199 48.6582L49.707 34.8008C50.1367 34.124 50.5771 33.8662 51.2861 33.8662C52.3174 33.8662 53.0693 34.5967 53.0693 35.6064C53.0693 35.9824 52.9512 36.3799 52.6719 36.8096L42.6602 52.1172C42.2734 52.708 41.7041 52.9873 40.9736 52.9873Z" fill="white"/>
</g>
<defs>
<filter id="filter0_d_175_9561" x="0.5" y="0" width="86" height="86" filterUnits="userSpaceOnUse" color-interpolation-filters="sRGB">
<feFlood flood-opacity="0" result="BackgroundImageFix"/>
<feColorMatrix in="SourceAlpha" type="matrix" values="0 0 0 0 0 0 0 0 0 0 0 0 0 0 0 0 0 0 127 0" result="hardAlpha"/>
<feOffset/>
<feGaussianBlur stdDeviation="8"/>
<feComposite in2="hardAlpha" operator="out"/>
<feColorMatrix type="matrix" values="0 0 0 0 0 0 0 0 0 0.670588 0 0 0 0 0.282353 0 0 0 1 0"/>
<feBlend mode="normal" in2="BackgroundImageFix" result="effect1_dropShadow_175_9561"/>
<feBlend mode="normal" in="SourceGraphic" in2="effect1_dropShadow_175_9561" result="shape"/>
</filter>
</defs>
</svg>
