<svg width="48" height="49" viewBox="0 0 48 49" fill="none" xmlns="http://www.w3.org/2000/svg">
<rect y="0.5" width="48" height="48" rx="24" fill="#FF424C"/>
<path d="M19.4238 34.7617C17.7441 34.7617 16.7285 33.8438 16.6504 32.1641L16.0059 18.3164H15.0879C14.4727 18.3164 13.9941 17.8672 13.9941 17.2422C13.9941 16.627 14.4727 16.1777 15.0879 16.1777H19.2285V14.7617C19.2285 13.1309 20.2441 12.2129 22.0605 12.2129H25.7812C27.5977 12.2129 28.623 13.1309 28.623 14.7617V16.1777H32.7637C33.3887 16.1777 33.8672 16.627 33.8672 17.2422C33.8672 17.8672 33.3984 18.3164 32.7637 18.3164H31.8555L31.2109 32.1641C31.1328 33.834 30.1074 34.7617 28.4375 34.7617H19.4238ZM21.4746 14.8398V16.1777H26.377V14.8398C26.377 14.4199 26.084 14.166 25.6152 14.166H22.2266C21.7676 14.166 21.4746 14.4199 21.4746 14.8398ZM20.9082 31.627C21.416 31.627 21.748 31.3047 21.7285 30.8164L21.4258 20.4355C21.4062 19.9473 21.0742 19.6348 20.5859 19.6348C20.0781 19.6348 19.7559 19.957 19.7656 20.4453L20.0684 30.8262C20.0977 31.3145 20.4199 31.627 20.9082 31.627ZM23.9258 31.627C24.4238 31.627 24.7559 31.3145 24.7559 30.8359V20.4355C24.7559 19.9473 24.4238 19.6348 23.9258 19.6348C23.4375 19.6348 23.1055 19.9473 23.1055 20.4355V30.8359C23.1055 31.3145 23.4375 31.627 23.9258 31.627ZM26.9531 31.627C27.4414 31.627 27.7637 31.3145 27.7832 30.8262L28.0859 20.4453C28.1055 19.957 27.7832 19.6348 27.2754 19.6348C26.7871 19.6348 26.4551 19.9473 26.4355 20.4355L26.123 30.8164C26.1133 31.3047 26.4355 31.627 26.9531 31.627Z" fill="white"/>
</svg>
