<svg width="18" height="14" viewBox="0 0 18 14" fill="none" xmlns="http://www.w3.org/2000/svg">
<path d="M3.44971 11.0098H15.0469L14.8057 11.981C14.6618 12.5522 14.4227 12.9775 14.0884 13.2568C13.7583 13.5404 13.3034 13.6821 12.7236 13.6821H5.7666C5.19108 13.6821 4.73617 13.5404 4.40186 13.2568C4.06755 12.9733 3.83057 12.548 3.69092 11.981L3.44971 11.0098ZM3.15771 9.79102L2.08496 5.44922L3.28467 4.77637L5.84277 6.58545C5.91471 6.63623 5.97607 6.65527 6.02686 6.64258C6.07764 6.62988 6.12419 6.59603 6.1665 6.54102L8.81348 2.75146L9.68311 2.75781L12.3428 6.56641C12.3851 6.62988 12.4338 6.66797 12.4888 6.68066C12.548 6.68913 12.6136 6.66797 12.6855 6.61719L15.2754 4.78906L16.4243 5.37305L15.3452 9.79102H3.15771ZM2.37061 6.47754C2.05322 6.47754 1.76123 6.39925 1.49463 6.24268C1.22803 6.0861 1.01432 5.87451 0.853516 5.60791C0.69694 5.34131 0.618652 5.0472 0.618652 4.72559C0.618652 4.40397 0.69694 4.11198 0.853516 3.84961C1.01432 3.58301 1.22591 3.37142 1.48828 3.21484C1.75488 3.05827 2.04899 2.97998 2.37061 2.97998C2.69222 2.97998 2.98421 3.05827 3.24658 3.21484C3.51318 3.37142 3.72477 3.58301 3.88135 3.84961C4.03792 4.11198 4.11621 4.40397 4.11621 4.72559C4.11621 5.0472 4.03792 5.34131 3.88135 5.60791C3.72477 5.87451 3.51318 6.0861 3.24658 6.24268C2.98421 6.39925 2.69222 6.47754 2.37061 6.47754ZM9.24512 3.67822C8.9235 3.67822 8.62939 3.59993 8.36279 3.44336C8.10042 3.28678 7.88883 3.0752 7.72803 2.80859C7.57145 2.54199 7.49316 2.24788 7.49316 1.92627C7.49316 1.60465 7.57145 1.31266 7.72803 1.05029C7.88883 0.783691 8.10042 0.572103 8.36279 0.415527C8.62939 0.258952 8.9235 0.180664 9.24512 0.180664C9.56673 0.180664 9.85872 0.261068 10.1211 0.421875C10.3877 0.578451 10.5993 0.790039 10.7559 1.05664C10.9124 1.31901 10.9907 1.60889 10.9907 1.92627C10.9907 2.24788 10.9124 2.54199 10.7559 2.80859C10.5993 3.0752 10.3877 3.28678 10.1211 3.44336C9.85872 3.59993 9.56673 3.67822 9.24512 3.67822ZM16.1006 6.47754C15.7747 6.47754 15.4785 6.39925 15.2119 6.24268C14.9495 6.0861 14.7401 5.87451 14.5835 5.60791C14.4269 5.34131 14.3486 5.0472 14.3486 4.72559C14.3486 4.40397 14.4269 4.11198 14.5835 3.84961C14.7401 3.58301 14.9495 3.37142 15.2119 3.21484C15.4785 3.05827 15.7747 2.97998 16.1006 2.97998C16.418 2.97998 16.71 3.05827 16.9766 3.21484C17.2432 3.37142 17.4548 3.58301 17.6113 3.84961C17.7679 4.11198 17.8462 4.40397 17.8462 4.72559C17.8462 5.0472 17.7658 5.34131 17.605 5.60791C17.4484 5.87451 17.2368 6.0861 16.9702 6.24268C16.7078 6.39925 16.418 6.47754 16.1006 6.47754Z" fill="#FFB52C"/>
</svg>
