<svg width="27" height="24" viewBox="0 0 27 24" fill="none" xmlns="http://www.w3.org/2000/svg">
<path d="M10.8145 20.1816H16.1855V14.8984C16.1855 14.6641 16.1139 14.4753 15.9707 14.332C15.8275 14.1888 15.6354 14.1172 15.3945 14.1172H11.6055C11.3711 14.1172 11.179 14.1888 11.0293 14.332C10.8861 14.4753 10.8145 14.6641 10.8145 14.8984V20.1816ZM4.23242 20.4844V13.9316L12.8359 6.72461C13.2721 6.35352 13.7083 6.35352 14.1445 6.72461L22.7285 13.9316V20.4844C22.7285 21.2526 22.4779 21.8678 21.9766 22.3301C21.4818 22.7988 20.8177 23.0332 19.9844 23.0332H6.98633C6.15299 23.0332 5.48568 22.7988 4.98438 22.3301C4.48307 21.8678 4.23242 21.2526 4.23242 20.4844ZM2.23047 12.8086C1.76823 12.8086 1.40039 12.6751 1.12695 12.4082C0.853516 12.1413 0.716797 11.7962 0.716797 11.373C0.716797 10.9043 0.921875 10.5007 1.33203 10.1621L11.5078 1.62695C12.1068 1.11263 12.7676 0.855469 13.4902 0.855469C14.2194 0.855469 14.8867 1.11263 15.4922 1.62695L25.668 10.1621C26.0716 10.5007 26.2734 10.9043 26.2734 11.373C26.2734 11.7962 26.1367 12.1413 25.8633 12.4082C25.5898 12.6751 25.222 12.8086 24.7598 12.8086C24.5579 12.8086 24.3561 12.7663 24.1543 12.6816C23.9525 12.5905 23.7669 12.4701 23.5977 12.3203L14.1445 4.40039C13.9362 4.22461 13.7181 4.13672 13.4902 4.13672C13.2754 4.13672 13.0638 4.22461 12.8555 4.40039L3.40234 12.3203C3.22656 12.4701 3.03776 12.5905 2.83594 12.6816C2.63411 12.7663 2.43229 12.8086 2.23047 12.8086ZM19.1738 5.5918V3.56055C19.1738 3.31966 19.2454 3.13086 19.3887 2.99414C19.5384 2.85091 19.7305 2.7793 19.9648 2.7793H22.1621C22.403 2.7793 22.5918 2.85091 22.7285 2.99414C22.8652 3.13086 22.9336 3.31966 22.9336 3.56055V8.72656L19.1738 5.5918Z" fill="white" fill-opacity="0.44"/>
</svg>
