<svg width="23" height="22" viewBox="0 0 23 22" fill="none" xmlns="http://www.w3.org/2000/svg">
<path d="M10.6211 21.8672C10.2174 21.8672 9.86914 21.75 9.57617 21.5156C9.28971 21.2878 9.10091 20.9818 9.00977 20.5977L8.56055 18.752C8.4694 18.7194 8.375 18.6836 8.27734 18.6445C8.1862 18.6055 8.10156 18.5664 8.02344 18.5273L6.42188 19.5234C6.08984 19.7253 5.73503 19.8066 5.35742 19.7676C4.98633 19.735 4.65755 19.5788 4.37109 19.2988L3.14062 18.0684C2.86068 17.7884 2.70443 17.4564 2.67188 17.0723C2.63932 16.6882 2.72721 16.3301 2.93555 15.998L3.90234 14.4062C3.86979 14.3216 3.83398 14.237 3.79492 14.1523C3.76237 14.0677 3.73307 13.9798 3.70703 13.8887L1.85156 13.4492C1.45443 13.3581 1.14193 13.1693 0.914062 12.8828C0.686198 12.5898 0.572266 12.2415 0.572266 11.8379V10.1191C0.572266 9.72201 0.686198 9.37695 0.914062 9.08398C1.14193 8.79102 1.45443 8.59896 1.85156 8.50781L3.6875 8.06836C3.71354 7.9707 3.74609 7.87956 3.78516 7.79492C3.82422 7.70378 3.86003 7.6224 3.89258 7.55078L2.91602 5.91016C2.70117 5.5651 2.61003 5.20703 2.64258 4.83594C2.68164 4.46484 2.8444 4.13932 3.13086 3.85938L4.38086 2.62891C4.66081 2.35547 4.97331 2.19922 5.31836 2.16016C5.66992 2.12109 6.01497 2.19271 6.35352 2.375L8.01367 3.39062C8.0918 3.35156 8.17969 3.3125 8.27734 3.27344C8.375 3.22786 8.4694 3.1888 8.56055 3.15625L9.00977 1.31055C9.10742 0.919922 9.29948 0.607422 9.58594 0.373047C9.8724 0.138672 10.2174 0.0214844 10.6211 0.0214844H12.3789C12.7826 0.0214844 13.1276 0.138672 13.4141 0.373047C13.7005 0.607422 13.8926 0.916667 13.9902 1.30078L14.4395 3.17578C14.5371 3.20833 14.6315 3.24414 14.7227 3.2832C14.8138 3.32227 14.8984 3.36458 14.9766 3.41016L16.6465 2.375C16.9785 2.19271 17.3171 2.12435 17.6621 2.16992C18.0137 2.21549 18.3294 2.36198 18.6094 2.60938L19.8691 3.85938C20.1556 4.13932 20.3151 4.46484 20.3477 4.83594C20.3867 5.20703 20.3021 5.5651 20.0938 5.91016L19.1074 7.55078C19.1465 7.6224 19.1823 7.70378 19.2148 7.79492C19.2539 7.87956 19.2897 7.9707 19.3223 8.06836L21.1582 8.50781C21.5423 8.59896 21.8483 8.79102 22.0762 9.08398C22.3105 9.37695 22.4277 9.72201 22.4277 10.1191V11.8379C22.4277 12.2415 22.3105 12.5898 22.0762 12.8828C21.8483 13.1693 21.5423 13.3581 21.1582 13.4492L19.293 13.8887C19.2669 13.9798 19.2376 14.0677 19.2051 14.1523C19.1725 14.237 19.1367 14.3216 19.0977 14.4062L20.0645 15.998C20.2728 16.3301 20.3607 16.6882 20.3281 17.0723C20.3021 17.4564 20.1491 17.7884 19.8691 18.0684L18.6289 19.2988C18.349 19.5788 18.0202 19.735 17.6426 19.7676C17.2715 19.8066 16.9199 19.7253 16.5879 19.5234L14.9766 18.5273C14.8919 18.5664 14.804 18.6055 14.7129 18.6445C14.6283 18.6836 14.5371 18.7194 14.4395 18.752L13.9902 20.5977C13.8991 20.9818 13.707 21.2878 13.4141 21.5156C13.1276 21.75 12.7826 21.8672 12.3789 21.8672H10.6211ZM11.5 14.2695C12.112 14.2695 12.6686 14.1198 13.1699 13.8203C13.6712 13.5208 14.0716 13.1204 14.3711 12.6191C14.6706 12.1178 14.8203 11.5612 14.8203 10.9492C14.8203 10.3372 14.6706 9.7806 14.3711 9.2793C14.0716 8.77799 13.6712 8.3776 13.1699 8.07812C12.6686 7.77865 12.112 7.62891 11.5 7.62891C10.888 7.62891 10.3314 7.77865 9.83008 8.07812C9.32878 8.3776 8.92839 8.77799 8.62891 9.2793C8.32943 9.7806 8.17969 10.3372 8.17969 10.9492C8.17969 11.5612 8.32943 12.1178 8.62891 12.6191C8.92839 13.1204 9.32878 13.5208 9.83008 13.8203C10.3314 14.1198 10.888 14.2695 11.5 14.2695Z" fill="white"/>
</svg>
