<svg width="32" height="32" viewBox="0 0 32 32" fill="none" xmlns="http://www.w3.org/2000/svg">
<path d="M32 0V32H0V0H32Z" fill="white" fill-opacity="0.01"/>
<path d="M27.4298 13.5791C27.728 12.6812 27.8311 11.73 27.7323 10.789C27.6335 9.8481 27.335 8.93906 26.8569 8.12267C25.4023 5.59077 22.4788 4.28839 19.6237 4.90038C18.8331 4.02102 17.8251 3.36515 16.7009 2.99863C15.5766 2.63212 14.3757 2.56788 13.2188 2.81235C12.0619 3.05681 10.9896 3.60139 10.1098 4.39139C9.22992 5.18138 8.57341 6.18898 8.20619 7.31299C7.27913 7.50309 6.40333 7.88887 5.63731 8.44456C4.87129 9.00024 4.23271 9.71303 3.76423 10.5353C2.29385 13.0632 2.62769 16.2518 4.58963 18.4205C4.29036 19.3179 4.18619 20.269 4.2841 21.2099C4.382 22.1509 4.67972 23.0601 5.15734 23.8768C6.61374 26.4096 9.53908 27.7119 12.3958 27.0991C13.0239 27.8063 13.7956 28.3715 14.6595 28.7568C15.5234 29.142 16.4595 29.3386 17.4053 29.3333C20.3318 29.3359 22.9246 27.4467 23.8185 24.6601C24.7454 24.4696 25.6211 24.0837 26.387 23.5281C27.153 22.9724 27.7916 22.2598 28.2604 21.4378C29.713 18.9144 29.3778 15.7431 27.4298 13.5791ZM17.4053 27.5881C16.2372 27.5899 15.1057 27.1805 14.2093 26.4316L14.367 26.3422L19.6762 23.2776C19.8083 23.2001 19.918 23.0896 19.9945 22.9569C20.071 22.8242 20.1117 22.6739 20.1125 22.5207V15.0352L22.3572 16.3336C22.3796 16.345 22.3952 16.3664 22.3992 16.3914V22.5942C22.3934 25.3498 20.1609 27.5823 17.4053 27.5881ZM6.67128 23.0043C6.08546 21.9928 5.87513 20.8071 6.07727 19.6557L6.23489 19.7504L11.5494 22.815C11.6809 22.8922 11.8306 22.9329 11.9831 22.9329C12.1356 22.9329 12.2853 22.8922 12.4167 22.815L18.9087 19.0723V21.6638C18.9081 21.6772 18.9045 21.6904 18.8981 21.7022C18.8917 21.714 18.8828 21.7243 18.8719 21.7321L13.4944 24.8336C11.1047 26.2103 8.05165 25.3917 6.67128 23.0043ZM5.27293 11.4395C5.86282 10.4215 6.79389 9.64496 7.90132 9.2475V15.5554C7.89932 15.7078 7.93826 15.858 8.01408 15.9902C8.0899 16.1224 8.19982 16.2319 8.33237 16.3072L14.7928 20.0342L12.5482 21.3325C12.536 21.339 12.5225 21.3423 12.5088 21.3423C12.495 21.3423 12.4815 21.339 12.4694 21.3325L7.10232 18.2365C4.71735 16.8541 3.89945 13.8034 5.27293 11.4133V11.4395ZM23.7134 15.7237L17.2318 11.9599L19.4713 10.6668C19.4834 10.6604 19.497 10.657 19.5107 10.657C19.5245 10.657 19.538 10.6604 19.5502 10.6668L24.9172 13.7683C25.7378 14.2418 26.4068 14.9389 26.8461 15.7784C27.2853 16.6178 27.4767 17.5649 27.3979 18.5091C27.3191 19.4532 26.9733 20.3554 26.4009 21.1104C25.8286 21.8654 25.0533 22.442 24.1655 22.7729V16.4649C24.1608 16.3128 24.1167 16.1644 24.0375 16.0345C23.9582 15.9046 23.8465 15.7975 23.7134 15.7237ZM25.9474 12.3648L25.7897 12.27L20.4857 9.17917C20.3535 9.10154 20.2028 9.06062 20.0495 9.06062C19.8961 9.06062 19.7455 9.10154 19.6132 9.17917L13.1264 12.922V10.3305C13.125 10.3173 13.1272 10.304 13.1327 10.292C13.1383 10.28 13.147 10.2697 13.1579 10.2622L18.5249 7.16595C19.3475 6.69209 20.288 6.46223 21.2364 6.50325C22.1848 6.54428 23.1019 6.85449 23.8805 7.39762C24.6591 7.94074 25.2669 8.69432 25.6329 9.57022C25.9989 10.4461 26.108 11.4081 25.9473 12.3437V12.3648H25.9474ZM11.9017 16.959L9.65704 15.6659C9.64582 15.6591 9.63623 15.6499 9.62895 15.639C9.62167 15.6281 9.61688 15.6158 9.61491 15.6028V9.4158C9.61616 8.46667 9.88758 7.53751 10.3974 6.73695C10.9073 5.93639 11.6345 5.29751 12.4941 4.89503C13.3536 4.49254 14.31 4.34306 15.2514 4.46409C16.1928 4.58511 17.0803 4.97162 17.8101 5.57844L17.6524 5.66783L12.3432 8.7324C12.2111 8.80991 12.1014 8.92044 12.0249 9.05316C11.9484 9.18587 11.9077 9.3362 11.9069 9.48938L11.9017 16.9591V16.959ZM13.1211 14.3306L16.0123 12.6643L18.9087 14.3307V17.6634L16.0228 19.3298L13.1265 17.6634L13.1211 14.3306Z" fill="#F7F9FC"/>
</svg>
