<svg width="32" height="32" viewBox="0 0 32 32" fill="none" xmlns="http://www.w3.org/2000/svg">
<path d="M15.9336 26.1348C10.3086 26.1348 5.74805 21.5742 5.74805 15.9492C5.74805 10.3242 10.3086 5.76367 15.9336 5.76367C21.5586 5.76367 26.1191 10.3242 26.1191 15.9492C26.1191 21.5742 21.5586 26.1348 15.9336 26.1348ZM13.4336 13.8984C13.9316 14.0645 14.4492 14.1914 14.9668 14.2891C15.1523 11.9258 15.8555 9.63086 17.0078 7.58008C16.9102 7.56055 16.8027 7.55078 16.7051 7.54102C15.0547 9.06445 13.7852 10.9102 12.9746 12.9512C13.2188 13.1953 13.3848 13.5273 13.4336 13.8984ZM9 11.1348C9.58594 11.7305 10.2305 12.248 10.9141 12.6973C11.1289 12.5703 11.3633 12.4824 11.627 12.4629C12.3301 10.6855 13.3457 9.04492 14.6348 7.60938C12.3105 7.9707 10.2988 9.2793 9 11.1348ZM19.127 11.1738C19.127 11.8867 19.2051 12.5898 19.3516 13.2637C19.8301 13.2832 20.2598 13.498 20.5527 13.8398C21.6172 13.4688 22.6133 12.9316 23.5215 12.248C22.6719 10.5098 21.2461 9.11328 19.498 8.29297C19.2344 9.23047 19.1172 10.207 19.127 11.1738ZM17.6914 11.1836C17.6816 10.4414 17.7402 9.71875 17.8672 9.00586C17.0371 10.6953 16.5391 12.5312 16.4023 14.4453C16.5879 14.4551 16.7734 14.4551 16.959 14.4551C17.2129 14.4551 17.4668 14.4453 17.7109 14.4258C17.7793 14.2207 17.877 14.0352 18.0137 13.8691C17.8086 13 17.6914 12.1016 17.6914 11.1836ZM7.49609 15.9492C7.49609 16.0371 7.49609 16.1348 7.49609 16.2324C8.42383 17.0137 9.42969 17.668 10.4746 18.1953C10.4941 17.2578 10.5918 16.3398 10.7578 15.4316C10.3672 15.1191 10.1133 14.6504 10.1133 14.1133C10.1133 14.0449 10.123 13.9766 10.123 13.9082C9.45898 13.4785 8.83398 12.9902 8.25781 12.4434C7.76953 13.5078 7.49609 14.6992 7.49609 15.9492ZM24.3711 15.9492C24.3711 15.1484 24.2637 14.3867 24.0586 13.6543C23.0918 14.3281 22.0371 14.8555 20.9238 15.2363C20.8555 15.5977 20.6797 15.9199 20.416 16.1543C20.9531 17.1406 21.6562 18.0391 22.4961 18.8105C23.043 18.5957 23.5801 18.3516 24.1074 18.0684C24.2832 17.3945 24.3711 16.6816 24.3711 15.9492ZM11.9102 18.8301C12.877 19.1914 13.8828 19.4551 14.8984 19.6113C14.9961 19.416 15.1426 19.25 15.3086 19.1133C15.0645 18.0098 14.9375 16.877 14.918 15.7246C14.2637 15.627 13.6191 15.4707 12.9941 15.2656C12.7695 15.5 12.4863 15.666 12.1543 15.7441C11.9688 16.75 11.8906 17.7852 11.9102 18.8301ZM16.959 15.8906C16.7637 15.8906 16.5586 15.8809 16.3633 15.8809C16.3828 16.8574 16.5 17.8242 16.7148 18.7715C17.2617 18.8887 17.7109 19.2695 17.916 19.7773C18.9414 19.7188 19.957 19.5625 20.9629 19.2988C20.1816 18.4883 19.5273 17.5605 19.0098 16.5645C18.5605 16.4863 18.1699 16.2227 17.916 15.8516C17.6035 15.8711 17.2812 15.8906 16.959 15.8906ZM7.82812 18.293C8.35547 20.1289 9.48828 21.7012 10.9922 22.7949C10.7383 21.8086 10.5723 20.8125 10.5137 19.8066C9.57617 19.3965 8.67773 18.8887 7.82812 18.293ZM15.9336 24.3867C16.4414 24.3867 16.9492 24.3379 17.4277 24.25C16.9883 23.5566 16.6074 22.834 16.2852 22.0918C15.6113 22.0527 15.0547 21.6328 14.8203 21.0469C13.8633 20.9102 12.916 20.6855 11.998 20.3828C12.1348 21.5547 12.4082 22.6973 12.8379 23.8008C13.7949 24.1816 14.8398 24.3867 15.9336 24.3867ZM17.6133 21.5352C17.9648 22.3457 18.3945 23.1172 18.8828 23.8594C20.4648 23.2637 21.8125 22.2188 22.7793 20.8809C22.584 20.7344 22.3887 20.5879 22.1934 20.4414C20.7773 20.9004 19.3125 21.1543 17.8477 21.2129C17.7793 21.3301 17.7012 21.4375 17.6133 21.5352Z" fill="white"/>
</svg>
